<svg xmlns="http://www.w3.org/2000/svg" viewBox="0 0 76.54 76.54"><defs><style>.cls-1{fill:#efefef;}.cls-2{fill:#d8cbb1;}.cls-3{fill:#8bc4c6;}.cls-4{fill:#683d1f;}.cls-5{fill:#cc8b06;}.cls-6{fill:#f9dfc5;}.cls-7{fill:#f4d2b3;}.cls-8{fill:#fff;}.cls-9{fill:#9b6743;}.cls-10{fill:#0f0500;}.cls-11{fill:#0f0a08;}.cls-12{fill:#e66b5b;}.cls-13{fill:#c1544c;}.cls-14{fill:#dbb79a;}.cls-15{opacity:0.6;}.cls-16{fill:none;}.cls-17{fill:#db9312;}</style></defs><title>avatar</title><g id="Layer_3" data-name="Layer 3"><rect class="cls-1" y="-0.06" width="76.54" height="76.54"/><path class="cls-2" d="M58.82,56.34l-1.75-1L50.8,58.86h0l-6.27-3.5-6.27,3.49h0L32,55.37l-6.27,3.49h0l-6.27-3.5-1.78,1a28.94,28.94,0,0,0-3,7.38l4.82-2.68,6.27,3.5h0L32,61.06l6.25,3.49h0l6.27-3.49,6.27,3.5h0l6.27-3.49,4.79,2.67A28.91,28.91,0,0,0,58.82,56.34Z"/><path class="cls-3" d="M57.08,72.44h0l-6.27,3.5-6.27-3.49h0l-6.27,3.5h0L32,72.44h0l-6.27,3.5-6.27-3.49h0l-5.59,3.12a2.38,2.38,0,0,0,1.88.93h45a2.39,2.39,0,0,0,1.87-.93Z"/><path class="cls-4" d="M63.11,70.42c0-.11,0-.22,0-.33l-6-3.34-6.27,3.5-6.27-3.5-6.27,3.5h0L32,66.74l-6.27,3.5-6.27-3.5-6,3.36c0,.15,0,.3,0,.45s0,3.36,0,3.53a2.37,2.37,0,0,0,.52,1.47l5.59-3.12h0l6.27,3.49L32,72.43h0l6.25,3.48h0l6.27-3.5h0l6.27,3.49,6.27-3.5h0l5.58,3.11a2.37,2.37,0,0,0,.52-1.47C63.18,73.91,63.15,70.61,63.11,70.42Z"/><path class="cls-5" d="M61.87,63.73l-4.79-2.67L50.8,64.55h0l-6.27-3.5-6.27,3.49h0L32,61.06l-6.27,3.49h0l-6.27-3.5-4.82,2.68a39.56,39.56,0,0,0-1.2,6.36l6-3.36,6.27,3.5L32,66.74l6.25,3.49h0l6.27-3.5,6.27,3.5,6.27-3.5,6,3.34A39.71,39.71,0,0,0,61.87,63.73Z"/><path class="cls-3" d="M57.08,54.06a6.21,6.21,0,0,0-2.68-1.71L53,51.95c-.79-.23-1.51-.46-2.19-.69-1-.33-1.89-.65-2.7-1l-1.37-.55-.09,0c-.43-.18-.82-.36-1.18-.53l-.09,0a8.21,8.21,0,0,1-.85,1.55,7.75,7.75,0,0,1-2.39,2.23l-.36.21-.42.2c-.2.09-.39.17-.59.24l-.35.11a7.45,7.45,0,0,1-.81.19l-.22,0a7.78,7.78,0,0,1-1.13.09,7.59,7.59,0,0,1-1.12-.09l-.26,0a7.34,7.34,0,0,1-.76-.18l-.38-.12c-.19-.07-.37-.14-.55-.22l-.45-.21-.31-.18a7.76,7.76,0,0,1-1.85-1.51h0a8,8,0,0,1-.56-.7,7.71,7.71,0,0,1-.48-.77h0a7.44,7.44,0,0,1-.39-.81l-.9.41-.42.18-.62.26-.52.21c-.86.34-1.83.69-2.93,1.05-.69.23-1.42.46-2.22.7l-1.4.41A6.2,6.2,0,0,0,19.46,54a12.87,12.87,0,0,0-1.78,2.32l1.78-1,6.27,3.5h0l6.21-3.45a10.88,10.88,0,0,0,2.42,1.29l3.89,2.17h0l6.27-3.49,6.27,3.5h0l6.27-3.49,1.75,1A12.9,12.9,0,0,0,57.08,54.06Z"/><path class="cls-6" d="M29.2,33.14c.26,2.16-.45,4-1.58,4.12s-2.26-1.54-2.52-3.7.45-4,1.58-4.12S28.94,31,29.2,33.14Z"/><path class="cls-6" d="M51.4,33.54c-.23,2.16-1.34,3.83-2.47,3.73s-1.87-1.94-1.63-4.1,1.34-3.83,2.47-3.73S51.63,31.38,51.4,33.54Z"/><path class="cls-7" d="M49.47,33.21c0,7.67.05,18-11.17,18s-11.23-10.34-11.23-18S30,16.75,38.27,16.75C47.31,16.75,49.47,25.53,49.47,33.21Z"/><path class="cls-8" d="M36.35,33.36s-1.29-2.64-3.8-2.52c-2.7.14-3,2-3,2A3.25,3.25,0,0,0,33,34.39,10.81,10.81,0,0,0,36.35,33.36Z"/><circle class="cls-9" cx="32.76" cy="32.37" r="1.69" transform="translate(-5.26 58.37) rotate(-79.03)"/><circle class="cls-10" cx="32.79" cy="32.19" r="1.21" transform="translate(-5.06 58.24) rotate(-79.01)"/><circle class="cls-8" cx="32.72" cy="32.21" r="0.43" transform="translate(-5.13 58.21) rotate(-79.04)"/><path class="cls-11" d="M36.35,33.36s-1.89-3.83-6.8-.65C29.89,31.46,33.55,28.22,36.35,33.36Z"/><path class="cls-8" d="M40.19,33.36s1.29-2.64,3.8-2.52c2.7.14,3,2,3,2a3.26,3.26,0,0,1-3.37,1.58A10.82,10.82,0,0,1,40.19,33.36Z"/><circle class="cls-9" cx="43.78" cy="32.37" r="1.69" transform="translate(-5.36 8.92) rotate(-10.97)"/><circle class="cls-10" cx="43.75" cy="32.19" r="1.21" transform="translate(-5.33 8.93) rotate(-10.99)"/><circle class="cls-8" cx="43.83" cy="32.21" r="0.43" transform="translate(-5.32 8.92) rotate(-10.96)"/><path class="cls-11" d="M40.19,33.36s1.89-3.83,6.8-.65C46.66,31.46,43,28.22,40.19,33.36Z"/><path class="cls-4" d="M49.29,39.62c0,1.6-2.51,4.62-4.22,4.62-2,0-3.07-2-7.08-2s-5.07,2-7.08,2c-1.71,0-3.66-3-3.66-4.62s0,4.19,0,4.19c0,4-1.63,20.94,10.5,20.94s11.45-17,11.45-20.94C49.24,43.82,49.29,38,49.29,39.62Z"/><path class="cls-8" d="M41,44.81a10.72,10.72,0,0,1-3.59.79,6.17,6.17,0,0,1-2.54-.82A3.23,3.23,0,0,1,36,44.44,34.75,34.75,0,0,1,41,44.81Z"/><path class="cls-12" d="M34.89,44.79c1.23,1.86,1.83,1.58,3.06,1.63,1.3-.1,1.83.39,3.09-1.61a12.49,12.49,0,0,1-3,.37A12.32,12.32,0,0,1,34.89,44.79Z"/><path class="cls-13" d="M39.12,44.06c-.7,0-.77.19-1.12.17s-.64-.14-1.34-.14a4.74,4.74,0,0,0-1.77.71A12.63,12.63,0,0,1,38,44.68a12,12,0,0,1,3.08.14A4.67,4.67,0,0,0,39.12,44.06Z"/><path class="cls-14" d="M35.8,41.47c.88,1,4.06,1,4.94,0h0a.79.79,0,0,0,.33-.55c0-.17-.37-.22-.73-.08h0a4.6,4.6,0,0,1-4.14,0h0c-.36-.14-.72-.09-.73.08a.78.78,0,0,0,.33.55Z"/><path class="cls-4" d="M45.09,14.44c-2.58-1-6.23-4.44-6.84-10.79v0C37.63,10,34,13.41,31.4,14.44,28.58,15.56,24.33,18.68,25,24.5A62.71,62.71,0,0,0,27,34.23s.32-10.13,3.65-11.72c3.88-1.86,11.41-1.86,15.28,0,3.33,1.6,3.65,11.72,3.65,11.72a62.56,62.56,0,0,0,1.91-9.74C52.16,18.68,47.91,15.56,45.09,14.44Z"/><path class="cls-15" d="M35.3,35.31A3.06,3.06,0,0,1,33.43,37a8.65,8.65,0,0,1-4.18.25,2.44,2.44,0,0,1-2-1.64,6.89,6.89,0,0,1-.37-3.14,2.15,2.15,0,0,1,1.39-1.53,12.87,12.87,0,0,1,5.44-.21c.75.15,2.08.3,2.39,1.25S35.82,34.41,35.3,35.31Z"/><path class="cls-16" d="M33.72,30.72a12.87,12.87,0,0,0-5.44.21,2.15,2.15,0,0,0-1.39,1.53,6.89,6.89,0,0,0,.37,3.14,2.44,2.44,0,0,0,2,1.64A8.65,8.65,0,0,0,33.43,37a3.06,3.06,0,0,0,1.87-1.67c.52-.9,1.13-2.33.8-3.34S34.47,30.87,33.72,30.72Z"/><path class="cls-17" d="M51.49,30.55a.22.22,0,0,0,0,0,.11.11,0,0,0-.06-.07h0c-1.11-.43-5.75-.65-8.25-.36s-4,1-4.85,1-2.34-.68-4.86-.94-7.15,0-8.24.46h0a.1.1,0,0,0-.07.07v0c0,.15,0,.8,0,1.16v.05a.31.31,0,0,0,.2.24h0c.22.08.61.44,1,2.19.18.88.41,2.73,2.19,3.28.81.24,4.72.74,6.7-.9a6.2,6.2,0,0,0,1.25-1.87c.22-.52.81-2,.9-2.26a.86.86,0,0,1,.86-.66h.2a.86.86,0,0,1,.87.65c.09.22.7,1.73.93,2.25a6.37,6.37,0,0,0,1.27,1.86c2,1.62,5.91,1.08,6.72.82,1.77-.58,2-2.43,2.15-3.3.38-1.76.76-2.12,1-2.21h0a.31.31,0,0,0,.2-.24v-.05C51.55,31.34,51.5,30.7,51.49,30.55ZM35.3,35.31A3.06,3.06,0,0,1,33.43,37a8.65,8.65,0,0,1-4.18.25,2.44,2.44,0,0,1-2-1.64,6.89,6.89,0,0,1-.37-3.14,2.15,2.15,0,0,1,1.39-1.53,12.87,12.87,0,0,1,5.44-.21c.75.15,2.08.3,2.39,1.25S35.82,34.41,35.3,35.31Zm14.12.16a2.44,2.44,0,0,1-2,1.66,8.62,8.62,0,0,1-4.17-.2,3,3,0,0,1-1.89-1.65c-.52-.9-1.16-2.31-.84-3.33s1.62-1.11,2.37-1.28a12.86,12.86,0,0,1,5.44.15,2.13,2.13,0,0,1,1.41,1.51A6.91,6.91,0,0,1,49.42,35.47Z"/><path class="cls-15" d="M48.36,30.82a12.86,12.86,0,0,0-5.44-.15c-.75.16-2.07.33-2.37,1.28s.32,2.44.84,3.33a3,3,0,0,0,1.89,1.65,8.62,8.62,0,0,0,4.17.2,2.44,2.44,0,0,0,2-1.66,6.91,6.91,0,0,0,.34-3.14A2.13,2.13,0,0,0,48.36,30.82Z"/></g></svg>