<svg xmlns="http://www.w3.org/2000/svg" viewBox="0 0 76.54 76.54"><defs><style>.cls-1{fill:#efefef;}.cls-2{fill:#211c18;}.cls-3{fill:#0b5389;}.cls-4{fill:#6d2323;}.cls-5{fill:#d1b399;}.cls-6{fill:#2500df;}.cls-7{fill:#27bdc8;}.cls-8{fill:#f9dfc5;}.cls-9{fill:#e66b5b;}.cls-10{fill:#fff;}.cls-11{fill:#93302e;}.cls-12{fill:#f4d2b3;}.cls-13{fill:#dbb79a;}.cls-14{fill:#219b86;}.cls-15{fill:#0f0500;}.cls-16{fill:#0f0a08;}</style></defs><title>avatar</title><g id="Layer_3" data-name="Layer 3"><rect class="cls-1" width="76.54" height="76.54"/><path class="cls-2" d="M32.14,16.12S19.19,36.63,32.23,47c7.29,6.28,8.78,10.64,6.14,13.58C42,59.25,46.28,40.34,39,38.18c-6.66-2-8.93-10.59-4.07-19.1C37,15.51,32.14,16.12,32.14,16.12Z"/><path class="cls-2" d="M31.79,14.95S15.35,30.47,26,44.83c5.86,8.52,6.47,13.24,3.35,15.2,3.81,0,11.51-16.91,4.88-21.44-6.06-4.14-6.62-13.23-.3-19.84C36.58,16,31.79,14.95,31.79,14.95Z"/><path class="cls-2" d="M33.43,13.23S14.92,23.89,23.08,40.87c4.4,9.94,4.26,14.73.9,15.79,3.73,1,13.91-13.37,8.13-19.63-5.28-5.72-4.41-14.76,2.82-19.49C38,15.55,33.43,13.23,33.43,13.23Z"/><path class="cls-2" d="M43.46,16.12S56.41,36.63,43.37,47c-7.29,6.28-8.78,10.64-6.14,13.58-3.67-1.31-7.92-20.21-.64-22.38,6.66-2,8.93-10.59,4.07-19.1C38.63,15.51,43.46,16.12,43.46,16.12Z"/><path class="cls-2" d="M43.81,14.95S60.25,30.47,49.6,44.83c-5.86,8.52-6.47,13.24-3.35,15.2-3.81,0-11.51-16.91-4.88-21.44,6.06-4.14,6.62-13.23.3-19.84C39,16,43.81,14.95,43.81,14.95Z"/><path class="cls-2" d="M43.79,13.16S62.3,23.82,54.13,40.8c-4.4,9.94-4.26,14.73-.9,15.79C49.51,57.6,39.32,43.21,45.1,37c5.28-5.72,4.41-14.76-2.82-19.49C39.26,15.48,43.79,13.16,43.79,13.16Z"/><path class="cls-3" d="M40.42,76.54l0-.58c-.06.19-.12.39-.19.58Z"/><rect class="cls-4" x="31.27" y="47.54" width="14.38" height="7.22"/><ellipse class="cls-2" cx="38.46" cy="29.06" rx="17.73" ry="18.47"/><polygon class="cls-5" points="43.39 58.87 33.55 58.9 33.48 44.46 43.32 44.43 43.39 58.87"/><path class="cls-2" d="M52.2,28.14c0,8-6.12,14.54-13.67,14.54S24.86,36.17,24.86,28.14,31,11.95,38.53,11.95,52.2,20.11,52.2,28.14Z"/><path class="cls-6" d="M37.38,37.2h0v0Z"/><path class="cls-7" d="M44.08,53.89v0Z"/><path class="cls-8" d="M29.77,33.85c.26,2.16-.45,4-1.58,4.12s-2.26-1.54-2.52-3.7.45-4,1.58-4.12S29.51,31.69,29.77,33.85Z"/><path class="cls-8" d="M47.41,33.85c-.26,2.16.45,4,1.58,4.12s2.26-1.54,2.52-3.7-.45-4-1.58-4.12S47.67,31.69,47.41,33.85Z"/><polygon class="cls-5" points="33.69 50.62 23.09 55.74 28.03 71.13 50.43 70.58 48.87 52.99 43.3 51.16 33.69 50.62"/><path class="cls-9" d="M63.11,70.49c-.63-6.91-3.82-16.7-8.71-18.08-4.24-1.19-9,2.8-9,2.8L38.26,68.5,31.13,55.22s-4.78-4-9-2.8C17.19,53.8,14,63.7,13.39,70.62h0c0,.14,0,3.53,0,3.53a2.4,2.4,0,0,0,2.39,2.39h45a2.4,2.4,0,0,0,2.39-2.39S63.15,70.67,63.11,70.49Z"/><polygon class="cls-10" points="45.38 55.22 38.26 68.5 31.14 55.22 34.87 76.53 41.26 76.53 45.38 55.22"/><polygon class="cls-11" points="31.27 47.54 24.71 53.8 28.26 55.13 26.14 58.34 34.2 76.53 36.24 76.53 31.27 47.54"/><polygon class="cls-11" points="52.22 53.8 45.66 47.54 40.69 76.53 42.73 76.53 50.8 58.34 48.67 55.13 52.22 53.8"/><circle class="cls-10" cx="28.12" cy="38.76" r="2.19"/><circle class="cls-9" cx="28.12" cy="38.76" r="1.72"/><circle class="cls-10" cx="28.12" cy="38.76" r="1.37"/><circle class="cls-9" cx="28.12" cy="38.76" r="1.01"/><circle class="cls-10" cx="49.17" cy="38.76" r="2.19"/><circle class="cls-9" cx="49.17" cy="38.76" r="1.72"/><circle class="cls-10" cx="49.17" cy="38.76" r="1.37"/><circle class="cls-9" cx="49.17" cy="38.76" r="1.01"/><circle class="cls-10" cx="46.79" cy="59.07" r="2.19"/><circle class="cls-9" cx="46.79" cy="59.07" r="1.72"/><circle class="cls-10" cx="46.79" cy="59.07" r="1.36"/><circle class="cls-9" cx="46.79" cy="59.07" r="1.01"/><path class="cls-12" d="M49.74,33.91c0,7.67-8.28,15.47-11.17,15.47s-11.23-7.8-11.23-15.47,2.89-16.46,11.2-16.46C47.59,17.46,49.74,26.24,49.74,33.91Z"/><path class="cls-13" d="M37,40.55a2.88,2.88,0,0,0,3.15,0h0a.5.5,0,0,0,.21-.35c0-.11-.23-.14-.46-.06h0a2.93,2.93,0,0,1-2.64,0h0c-.23-.09-.46-.06-.46.06a.5.5,0,0,0,.21.35Z"/><path class="cls-2" d="M29.63,30.52a2.73,2.73,0,0,1,2-.72c1.19.08,4.63.93,4.34,1.87-.06.19-.76-.26-1-.43S31.69,29.51,29.63,30.52Z"/><path class="cls-10" d="M35.93,34.13s-.88-2.66-3.26-2.85c-2.56-.21-3,1.48-3,1.48a3.1,3.1,0,0,0,3,1.91A10.21,10.21,0,0,0,35.93,34.13Z"/><circle class="cls-14" cx="32.67" cy="32.74" r="1.61" transform="translate(-8.8 53.22) rotate(-71.33)"/><circle class="cls-15" cx="32.73" cy="32.57" r="1.15" transform="translate(-8.59 53.18) rotate(-71.36)"/><circle class="cls-10" cx="33.08" cy="32.32" r="0.41" transform="translate(-8.09 53.38) rotate(-71.42)"/><circle class="cls-10" cx="32.33" cy="32.21" r="0.22" transform="translate(-8.63 52.33) rotate(-71.06)"/><path class="cls-16" d="M35.93,34.13s-1.3-3.85-6.33-1.47C30.08,31.52,33.94,28.93,35.93,34.13Z"/><path class="cls-2" d="M47.61,30.52a2.73,2.73,0,0,0-2-.72c-1.19.08-4.63.93-4.34,1.87.06.19.76-.26,1-.43S45.55,29.51,47.61,30.52Z"/><path class="cls-10" d="M41.31,34.13s.88-2.66,3.27-2.85c2.56-.21,3,1.48,3,1.48a3.1,3.1,0,0,1-3,1.91A10.21,10.21,0,0,1,41.31,34.13Z"/><circle class="cls-14" cx="44.57" cy="32.74" r="1.61" transform="translate(-8.13 15.98) rotate(-18.67)"/><circle class="cls-15" cx="44.51" cy="32.57" r="1.15" transform="translate(-8.08 15.94) rotate(-18.65)"/><circle class="cls-10" cx="44.16" cy="32.32" r="0.41" transform="matrix(0.95, -0.32, 0.32, 0.95, -7.99, 15.75)"/><circle class="cls-10" cx="44.91" cy="32.21" r="0.22" transform="translate(-8.02 16.32) rotate(-18.94)"/><path class="cls-16" d="M41.31,34.13s1.3-3.85,6.33-1.47C47.16,31.52,43.3,28.93,41.31,34.13Z"/><path class="cls-9" d="M37.17,42.68a7,7,0,0,0,1.41.43c.38,0,.45-.25,1.18-.41.46-.1,1.67.24,2.39-.4-1.61,2.9-2.18,3-3.64,3s-2-.35-3.56-3C35.14,42.63,36.59,42.59,37.17,42.68Z"/><path class="cls-2" d="M38.43,15.43c-7.66-1.27-12.7,9.8-12,10.25a11.85,11.85,0,0,0,7.83,1.61c2.47-.37,5.31-1.19,8-.26,6.34,2.25,6.09,8.69,6.23,10.18C54.81,14.37,37.87,14.78,38.43,15.43Z"/></g></svg>